# AST/ASF file generated using VICON BodyLanguage
# -----------------------------------------------
:version 1.10
:name VICON
:units
  mass 1.0
  length 0.45
  angle deg
:documentation
   .ast/.asf automatically generated from VICON data using
   VICON BodyBuilder and BodyLanguage model FoxedUp or BRILLIANT.MOD
:root
   order TX TY TZ RX RY RZ
   axis XYZ
   position 0 0 0  
   orientation 0 0 0 
:bonedata
  begin
     id 1 
     name lhipjoint
     direction 0.734343 -0.627749 0.258209 
     length 2.5437 
     axis 0 0 0  XYZ
  end
  begin
     id 2 
     name lfemur
     direction 0.34202 -0.939693 0  
     length 6.7391  
     axis 0 0 20  XYZ
    dof rx ry rz
    limits (-160.0 20.0)
           (-70.0 70.0)
           (-60.0 70.0)
  end
  begin
     id 3 
     name ltibia
     direction 0.34202 -0.939693 0   
     length 7.21536   
     axis 0 0 20   XYZ
    dof rx
    limits (-10.0 170.0)
  end
  begin
     id 4 
     name lfoot
     direction 0.0489572 -0.134509 0.989702   
     length 1.61313   
     axis -90 7.62852e-016 20   XYZ
    dof rx rz
    limits (-45.0 90.0)
           (-70.0 20.0)
  end
  begin
     id 5 
     name ltoes
     direction 1.53451e-011 -4.21692e-011 1   
     length 0.823104   
     axis -90 7.62852e-016 20   XYZ
    dof rx
    limits (-90.0 20.0)
  end
  begin
     id 6 
     name rhipjoint
     direction -0.746398 -0.615468 0.253157   
     length 2.59446  
     axis 0 0 0  XYZ 
  end
  begin
     id 7 
     name rfemur
     direction -0.34202 -0.939693 0   
     length 6.7075   
     axis 0 0 -20   XYZ
    dof rx ry rz
    limits (-160.0 20.0)
           (-70.0 70.0)
           (-70.0 60.0)
  end
  begin
     id 8 
     name rtibia
     direction -0.34202 -0.939693 0   
     length 7.27262   
     axis 0 0 -20   XYZ
    dof rx
    limits (-10.0 170.0)
 end
 begin
     id 9 
     name rfoot
     direction -0.0455203 -0.125066 0.991104   
     length 1.91095  
     axis -90 -7.62852e-016 -20   XYZ
    dof rx rz
    limits (-45.0 90.0)
           (-20.0 70.0)
  end
  begin
     id 10 
     name rtoes
     direction -1.53601e-011 -4.21913e-011 1   
     length 0.969037   
     axis -90 -7.62852e-016 -20   XYZ
    dof rx
    limits (-90.0 20.0)
  end
  begin
     id 11 
     name lowerback
     direction 0.0181546 0.999122 -0.0377542   
     length 1.99916   
     axis 0 0 0   XYZ
    dof rx ry rz
    limits (-20.0 45.0)
           (-30.0 30.0)
           (-30.0 30.0)
  end
  begin
     id 12 
     name upperback
     direction 0.0203486 0.99589 0.0882534   
     length 1.951   
     axis 0 0 0   XYZ
    dof rx ry rz
    limits (-20.0 45.0)
           (-30.0 30.0)
           (-30.0 30.0)
  end
  begin
     id 13 
     name thorax
     direction 0.0131685 0.994241 0.106355   
     length 1.97461   
     axis 0 0 0   XYZ
    dof rx ry rz
    limits (-20.0 45.0)
           (-30.0 30.0)
           (-30.0 30.0)
  end
  begin
     id 14 
     name lowerneck
     direction -0.0281395 0.999325 0.023617   
     length 1.7959   
     axis 0 0 0   XYZ
    dof rx ry rz
    limits (-20.0 45.0)
           (-30.0 30.0)
           (-30.0 30.0)
  end
  begin
     id 15 
     name upperneck
     direction 0.0288721 0.991984 -0.123019   
     length 1.79917   
     axis 0 0 0   XYZ
    dof rx ry rz
    limits (-20.0 45.0)
           (-30.0 30.0)
           (-30.0 30.0)
  end
  begin
     id 16
     name head
     direction 0.0133797 0.998944 -0.0439492  
     length 1.80902  
     axis 0 0 0   XYZ
    dof rx ry rz
    limits (-20.0 45.0)
           (-30.0 30.0)
           (-30.0 30.0)
  end
  begin
     id 17 
     name lclavicle
     direction 0.919195 0.377107 0.113449  
     length 3.17815  
     axis 0 0 0   XYZ
    dof ry rz
    limits (-20.0 10.0)
           (0.0 20.0)
  end
  begin
     id 18 
     name lhumerus
     direction 1 -4.48959e-011 2.13129e-027   
     length 4.84137   
     axis 180 -30 -90   XYZ
    dof rx ry rz
    limits (-60.0 90.0)
           (-90.0 90.0)
           (-90.0 90.0)
  end
  begin
     id 19
     name lradius
     direction 1 -4.48957e-011 -6.30627e-028   
     length 3.2452   
     axis 180 -30 -90   XYZ
    dof rx
    limits (-10.0 170.0)
  end
  begin
     id 20
     name lwrist
     direction 1 -4.4901e-011 9.13299e-027   
     length 1.6226   
     axis -6.84618e-015 90 90   XYZ
    dof ry
    limits (-180.0 0.0)
 end
  begin
     id 21 
     name lhand
     direction 1 -4.48816e-011 1.82293e-026   
     length 0.521221   
     axis -1.16502e-014 90 90   XYZ
    dof rx rz
    limits (-90.0 90.0)
           (-45.0 45.0)
  end
  begin
     id 22 
     name lfingers
     direction 1 -4.49108e-011 3.65687e-026   
     length 0.420221   
     axis -2.33008e-014 90 90   XYZ
    dof rx
    limits (0.0 90.0)
  end
  begin
     id 23
     name lthumb
     direction 0.707107 -6.34943e-011 0.707107   
     length 0.603356   
     axis -90 45 5.69224e-014   XYZ
    dof rx rz
    limits (-45.0 45.0)
           (-45.0 45.0)
  end
  begin
     id 24 
     name rclavicle
     direction -0.90847 0.38596 0.160368   
     length 3.12973  
     axis 0 0 0   XYZ 
    dof ry rz
    limits (-10.0 20.0)
           (-20.0 0.0)
  end
  begin
     id 25 
     name rhumerus
     direction -1 -4.48974e-011 4.47268e-028  
     length 4.72284   
     axis 180 30 90   XYZ
    dof rx ry rz
    limits (-90.0 60.0)
           (-90.0 90.0)
           (-90.0 90.0)
  end
  begin
     id 26 
     name rradius
     direction -1 -4.48969e-011 3.43203e-027   
     length 3.23459   
     axis 180 30 90   XYZ
    dof rx
    limits (-10.0 170.0)
  end
  begin
     id 27 
     name rwrist
     direction -1 -4.48969e-011 9.12911e-027   
     length 1.6173   
     axis -6.84618e-015 -90 -90   XYZ
    dof ry
    limits (-180.0 0.0)
  end
  begin
     id 28
     name rhand
     direction -1 -4.49194e-011 1.83006e-026   
     length 0.307416   
     axis -1.16502e-014 -90 -90   XYZ
    dof rx rz
    limits (-90.0 90.0)
           (-45.0 45.0)
  end
  begin
     id 29
     name rfingers
     direction -1 -4.48423e-011 3.63103e-026   
     length 0.247847   
     axis -2.33008e-014 -90 -90   XYZ
    dof rx
    limits (0.0 90.0)
  end
  begin
     id 30
     name rthumb
     direction -0.707107 -6.34802e-011 0.707107   
     length 0.35586   
     axis -90 -45 -5.69224e-014   XYZ
    dof rx rz
    limits (-45.0 45.0)
           (-45.0 45.0)
  end
:hierarchy
  begin
    root lhipjoint rhipjoint lowerback
    lhipjoint lfemur
    lfemur ltibia
    ltibia lfoot
    lfoot ltoes
    rhipjoint rfemur
    rfemur rtibia
    rtibia rfoot
    rfoot rtoes
    lowerback upperback
    upperback thorax
    thorax lowerneck lclavicle rclavicle
    lowerneck upperneck
    upperneck head
    lclavicle lhumerus
    lhumerus lradius
    lradius lwrist
    lwrist lhand lthumb
    lhand lfingers
    rclavicle rhumerus
    rhumerus rradius
    rradius rwrist
    rwrist rhand rthumb
    rhand rfingers
  end

#!OML:ASF H:\Terrain\Patient Classification 1\Animal1\Tuesday\Animal1.ASF
:FULLY-SPECIFIED
:DEGREES
1
root 12.5777 16.6166 -22.4904 12.0029 -6.42964 4.60304
lowerback -4.39127 0.185141 2.30033
upperback -5.1529 0.198945 0.499674
thorax -2.83827 0.0291936 -0.770208
lowerneck -6.79398 0.563859 -5.96329
upperneck 17.8054 0.614827 5.40102
head 6.47432 0.330901 2.77203
rclavicle 3.26131e-015 -2.62396e-014
rhumerus -41.119 3.10578 -89.7614
rradius 14.2703
rwrist -27.839
rhand -4.73954 19.2077
rfingers 7.12502
rthumb 21.0436 -9.67049
lclavicle 3.26131e-015 -2.62396e-014
lhumerus -46.3938 29.3038 65.9467
lradius 12.2063
lwrist -38.1398
lhand 28.5735 32.4725
lfingers 7.12502
lthumb 52.42 52.3253
rfemur -19.1042 16.3862 21.7195
rtibia 24.3821
rfoot -22.955 -41.5341
rtoes 36.233
lfemur -14.6957 -1.71445 -28.6676
ltibia 26.8125
lfoot -3.66329 23.4526
ltoes 15.5519
2
root 12.5591 16.5998 -22.4408 11.9923 -6.61309 4.64472
lowerback -4.51008 0.281887 2.32026
upperback -5.13791 0.324398 0.540875
thorax -2.75265 0.0930815 -0.736156
lowerneck -6.62168 0.559511 -5.87863
upperneck 17.652 0.615846 5.2649
head 6.39682 0.325249 2.70992
rclavicle -7.87995e-015 2.38542e-015
rhumerus -41.1518 2.89824 -89.6211
rradius 14.2033
rwrist -27.5322
rhand -5.39167 19.8509
rfingers 7.12502
rthumb 20.4171 -9.09572
lclavicle -7.87995e-015 2.38542e-015
lhumerus -46.5737 30.1538 65.142
lradius 12.0062
lwrist -39.6201
lhand 32.6494 39.1118
lfingers 7.12502
lthumb 56.0718 56.4457
rfemur -19.1113 15.1014 22.1818
rtibia 24.7957
rfoot -22.9554 -42.2011
rtoes 33.6441
lfemur -14.8375 -1.99424 -28.5485
ltibia 27.5273
lfoot -5.29586 23.1438
ltoes 19.777
3
root 12.537 16.5864 -22.3888 11.8089 -6.7482 4.97156
lowerback -4.41083 0.272438 2.01833
upperback -5.12521 0.321152 0.536435
thorax -2.79543 0.100927 -0.572213
lowerneck -6.60002 0.580401 -5.86806
upperneck 17.6843 0.664914 5.12752
head 6.40174 0.338435 2.66773
rclavicle 3.6145e-014 2.3059e-014
rhumerus -41.4217 3.79288 -90.1437
rradius 14.4698
rwrist -28.5402
rhand -5.22484 20.3472
rfingers 7.12502
rthumb 20.5774 -8.58212
lclavicle 3.6145e-014 2.3059e-014
lhumerus -46.8147 30.8254 64.5572
lradius 12.0436
lwrist -40.7565
lhand 32.1008 38.3148
lfingers 7.12502
lthumb 55.5851 56.0216
rfemur -19.145 13.9237 22.2757
rtibia 25.4404
rfoot -22.375 -42.3099
rtoes 31.5765
lfemur -14.5131 -2.08018 -28.8109
ltibia 27.616
lfoot -5.34208 23.009
ltoes 21.4482
4
root 12.5136 16.5768 -22.3335 11.5284 -6.71259 5.25689
lowerback -4.12483 0.193701 1.86786
upperback -5.10688 0.225556 0.491343
thorax -2.93862 0.0561592 -0.536956
lowerneck -6.83449 0.630804 -5.97713
upperneck 17.8485 0.753654 5.15293
head 6.48931 0.377652 2.7054
rclavicle -8.72789e-016 -1.11319e-014
rhumerus -41.6799 4.55487 -90.6402
rradius 14.7446
rwrist -29.5924
rhand -4.91487 20.0605
rfingers 7.12502
rthumb 20.8752 -8.83639
lclavicle -8.72789e-016 -1.11319e-014
lhumerus -46.8466 30.9246 64.4665
lradius 12.1756
lwrist -40.8408
lhand 35.6803 38.2999
lfingers 7.12502
lthumb 58.7283 53.3494
rfemur -19.0035 12.9193 22.3534
rtibia 25.9375
rfoot -21.5696 -42.3997
rtoes 30.3972
lfemur -14.1441 -2.00466 -29.0334
ltibia 27.8838
lfoot -5.21355 22.7659
ltoes 23.0767
5
root 12.4897 16.5604 -22.2796 11.3781 -6.6408 5.32404
lowerback -3.9547 0.233819 1.91398
upperback -5.16503 0.282119 0.425069
thorax -3.09276 0.0800514 -0.630745
lowerneck -6.88102 0.597485 -5.98311
upperneck 17.9387 0.700934 5.20168
head 6.52888 0.355743 2.72031
rclavicle 2.34504e-014 6.36111e-015
rhumerus -41.7918 3.93313 -90.3819
rradius 14.7078
rwrist -29.4488
rhand -4.79747 19.851
rfingers 7.12502
rthumb 20.988 -9.03341
lclavicle 2.34504e-014 6.36111e-015
lhumerus -46.7173 30.3392 64.8534
lradius 12.2848
lwrist -39.9384
lhand 33.3806 37.3398
lfingers 7.12502
lthumb 56.7179 54.1585
rfemur -18.9759 12.2725 22.5735
rtibia 26.4477
rfoot -21.7498 -42.6149
rtoes 29.8931
lfemur -13.8533 -1.87029 -29.0178
ltibia 28.0573
lfoot -5.16763 22.4216
ltoes 24.981
6
root 12.4656 16.5402 -22.2263 11.3379 -6.70004 5.3512
lowerback -4.01166 0.387461 1.88228
upperback -5.22029 0.485442 0.345505
thorax -3.11279 0.180878 -0.692201
lowerneck -6.74684 0.484634 -5.84727
upperneck 17.9622 0.529453 5.14648
head 6.52388 0.276112 2.6665
rclavicle -3.95085e-015 -1.19271e-014
rhumerus -41.7583 2.75285 -89.739
rradius 14.4941
rwrist -28.6064
rhand -5.4362 19.9057
rfingers 7.12502
rthumb 20.3743 -9.04546
lclavicle -3.95085e-015 -1.19271e-014
lhumerus -46.4213 29.3651 65.7342
lradius 12.3305
lwrist -38.1672
lhand 30.917 36.5656
lfingers 7.12502
lthumb 54.5294 55.0393
rfemur -19.0036 11.6255 22.7866
rtibia 26.8588
rfoot -20.1032 -43.0012
rtoes 27.3891
lfemur -13.7295 -1.84285 -29.0004
ltibia 28.31
lfoot -5.25008 22.314
ltoes 26.7383
7
root 12.4425 16.518 -22.1719 11.1986 -6.69113 5.2943
lowerback -3.98988 0.453702 1.91006
upperback -5.21205 0.573525 0.325705
thorax -3.11379 0.223729 -0.727154
lowerneck -6.61657 0.438659 -5.70162
upperneck 17.8435 0.466811 5.01066
head 6.46836 0.244113 2.59078
rclavicle 7.33018e-015 1.59028e-015
rhumerus -41.6052 1.574 -89.008
rradius 14.1277
rwrist -27.3996
rhand -6.31426 20.1363
rfingers 7.12502
rthumb 19.5302 -8.90274
lclavicle 7.33018e-015 1.59028e-015
lhumerus -46.3946 29.1306 66.0799
lradius 12.3326
lwrist -37.0151
lhand 33.4128 38.9274
lfingers 7.12502
lthumb 56.7463 55.7228
rfemur -18.7871 10.8492 23.0563
rtibia 27.1372
rfoot -19.5191 -42.4098
rtoes 26.6796
lfemur -13.646 -1.86225 -28.9275
ltibia 28.7346
lfoot -5.45337 22.6368
ltoes 25.3046
